<svg aria-hidden="true" style="position: absolute; width: 0; height: 0; overflow: hidden;" version="1.1" xmlns="http://www.w3.org/2000/svg" xmlns:xlink="http://www.w3.org/1999/xlink">
<defs>
<symbol id="icon-Octicons-mark-github-1" viewBox="0 0 32 32">
<path d="M16 0c-8.84 0-16 7.16-16 16 0 7.080 4.58 13.060 10.94 15.18 0.8 0.14 1.1-0.34 1.1-0.76 0-0.38-0.020-1.64-0.020-2.98-4.020 0.74-5.060-0.98-5.38-1.88-0.18-0.46-0.96-1.88-1.64-2.26-0.56-0.3-1.36-1.040-0.020-1.060 1.26-0.020 2.16 1.16 2.46 1.64 1.44 2.42 3.74 1.74 4.66 1.32 0.14-1.040 0.56-1.74 1.020-2.14-3.56-0.4-7.28-1.78-7.28-7.9 0-1.74 0.62-3.18 1.64-4.3-0.16-0.4-0.72-2.040 0.16-4.24 0 0 1.34-0.42 4.4 1.64 1.28-0.36 2.64-0.54 4-0.54s2.72 0.18 4 0.54c3.060-2.080 4.4-1.64 4.4-1.64 0.88 2.2 0.32 3.84 0.16 4.24 1.020 1.12 1.64 2.54 1.64 4.3 0 6.14-3.74 7.5-7.3 7.9 0.58 0.5 1.080 1.46 1.080 2.96 0 2.14-0.020 3.86-0.020 4.4 0 0.42 0.3 0.92 1.1 0.76 6.32-2.12 10.9-8.12 10.9-15.18 0-8.84-7.16-16-16-16z"></path>
</symbol>
<symbol id="icon-linkedin" viewBox="0 0 32 32">
<path d="M31.992 32h0.008v-11.738c0-5.741-1.237-10.163-7.947-10.163-3.227 0-5.392 1.77-6.277 3.45h-0.093v-2.914h-6.365v21.363h6.627v-10.578c0-2.786 0.528-5.48 3.978-5.48 3.398 0 3.448 3.179 3.448 5.658v10.402h6.621zM0.528 10.635h6.635v21.365h-6.635v-21.365zM3.843 0c-2.123 0-3.843 1.721-3.843 3.843v0c0 2.12 1.722 3.878 3.843 3.878 2.12 0 3.842-1.757 3.842-3.878s-1.72-3.841-3.841-3.843h-0z"></path>
</symbol>
<symbol id="icon-close-button" viewBox="0 0 32 32">
<path d="M26.667 7.303l-1.97-1.97-7.808 7.808-7.808-7.808-1.97 1.97 7.808 7.808-7.808 7.808 1.97 1.97 7.808-7.808 7.808 7.808 1.97-1.97-7.808-7.808 7.808-7.808z"></path>
</symbol>
</defs>
</svg>
