<?xml version="1.0" standalone="no"?>
<!DOCTYPE svg PUBLIC "-//W3C//DTD SVG 20010904//EN"
 "http://www.w3.org/TR/2001/REC-SVG-20010904/DTD/svg10.dtd">
<svg version="1.0" xmlns="http://www.w3.org/2000/svg"
 width="700.000000pt" height="700.000000pt" viewBox="0 0 700.000000 700.000000"
 preserveAspectRatio="xMidYMid meet">
<metadata>
Created by potrace 1.14, written by Peter Selinger 2001-2017
</metadata>
<g transform="translate(0.000000,700.000000) scale(0.100000,-0.100000)"
fill="#000000" stroke="none">
<path d="M1122 6648 c-134 -15 -285 -71 -401 -150 -66 -45 -181 -163 -227
-233 -71 -108 -116 -221 -137 -346 -9 -59 -12 -594 -11 -2440 1 -2599 -3
-2418 61 -2577 75 -190 229 -361 409 -458 51 -27 184 -72 249 -85 57 -10 524
-13 2435 -13 2213 0 2370 2 2450 18 170 35 309 108 430 226 117 115 161 181
220 329 56 142 52 -7 54 2551 1 1295 -2 2378 -6 2405 -15 119 -41 202 -90 300
-102 203 -292 367 -502 434 -146 46 -49 44 -2526 45 -1290 1 -2373 -2 -2408
-6z m684 -953 c0 -264 -1 -485 -3 -490 -2 -7 -173 -10 -491 -10 l-487 0 -2
321 c-2 339 0 362 47 454 29 56 72 103 134 144 92 61 115 64 476 62 l325 -1 1
-480z m2917 -731 c-2 -670 -5 -1219 -8 -1222 -6 -6 -2424 -6 -2431 0 -4 4 -6
938 -4 2121 l0 317 1223 0 1222 0 -2 -1216z m1220 1179 c115 -55 200 -158 226
-275 6 -24 10 -185 11 -358 l0 -315 -482 0 c-266 0 -487 3 -493 7 -6 4 -10
177 -9 490 1 265 2 484 3 486 0 2 153 2 339 0 l337 -3 68 -32z m-4144 -1428
c7 -8 8 -975 1 -976 -7 -1 -951 -1 -967 0 -10 1 -13 106 -13 490 l0 490 38 3
c70 6 934 -1 941 -7z m4374 5 c4 0 7 -220 7 -490 0 -385 -3 -490 -12 -491 -57
-4 -958 0 -964 4 -7 4 -11 932 -5 969 0 4 27 8 59 10 42 2 865 1 915 -2z
m-4393 -1459 l25 -1 0 -490 0 -490 -60 0 c-75 -1 -836 -1 -887 0 l-38 0 0 489
0 490 23 3 c18 2 847 1 937 -1z m2935 -3 c4 -4 8 -1766 5 -2365 l0 -73 -1220
0 -1220 0 0 83 c-1 102 -1 1668 0 2064 l0 292 28 3 c45 5 2402 1 2407 -4z
m1443 3 l22 -1 0 -490 0 -490 -47 -1 c-486 -5 -933 -2 -934 6 -1 6 -2 226 -3
490 l-1 480 30 5 c23 4 825 5 933 1z m-4353 -1946 l0 -490 -330 0 c-302 0
-335 2 -388 20 -104 35 -196 124 -243 235 -17 41 -19 78 -22 385 l-3 340 493
0 493 0 0 -490z m4372 165 c1 -310 0 -328 -20 -388 -28 -80 -88 -158 -160
-205 -92 -62 -122 -65 -482 -64 l-320 2 -1 485 c0 267 1 487 2 490 1 3 222 5
491 5 l488 0 2 -325z"/>
</g>
</svg>
